<?xml version="1.0" standalone="no"?>
<!DOCTYPE svg PUBLIC "-//W3C//DTD SVG 20010904//EN"
 "http://www.w3.org/TR/2001/REC-SVG-20010904/DTD/svg10.dtd">
<svg version="1.0" xmlns="http://www.w3.org/2000/svg"
 width="1024.000000pt" height="1024.000000pt" viewBox="0 0 1024.000000 1024.000000"
 preserveAspectRatio="xMidYMid meet">
<metadata>
Created by potrace 1.14, written by Peter Selinger 2001-2017
</metadata>
<g transform="translate(0.000000,1024.000000) scale(0.100000,-0.100000)"
fill="#000000" stroke="none">
<path d="M0 5120 l0 -5120 5120 0 5120 0 0 5120 0 5120 -5120 0 -5120 0 0
-5120z m5224 3860 c336 -86 534 -450 423 -777 -33 -97 -66 -151 -143 -232
l-64 -68 26 -24 c80 -74 155 -201 196 -329 19 -63 23 -96 23 -211 l0 -136 68
-17 c159 -41 289 -142 356 -274 17 -34 35 -62 39 -62 76 0 293 -41 412 -77
354 -109 636 -371 756 -703 13 -36 24 -71 24 -78 0 -11 -62 -13 -327 -10
l-328 4 -120 32 c-248 67 -470 164 -591 256 -68 52 -71 53 -98 39 -41 -22
-153 -43 -227 -43 -207 0 -389 88 -491 239 -17 25 -32 47 -33 49 -1 1 -31 -5
-66 -14 -49 -13 -90 -15 -174 -11 -358 18 -654 270 -731 622 -17 77 -17 264 0
335 54 225 184 395 402 526 18 11 18 13 1 40 -64 101 -97 215 -97 334 0 174
55 306 180 431 80 81 173 135 280 163 81 21 212 20 304 -4z m-1089 -3690 l0
-835 -685 0 -685 0 -3 610 -2 611 -75 74 -75 74 0 153 0 153 763 -2 762 -3 0
-835z m3205 377 l5 -157 60 -29 c119 -57 204 -160 252 -304 24 -75 27 -96 27
-232 -1 -141 -2 -156 -32 -246 -34 -104 -74 -171 -128 -219 l-35 -30 -1597 2
-1597 3 -3 532 -2 533 1217 2 1218 3 3 140 c1 77 4 146 7 153 3 10 69 12 302
10 l298 -3 5 -158z m-3356 -1327 l249 0 33 -36 34 -35 0 -366 c0 -357 0 -366
-21 -395 -42 -59 -23 -58 -765 -52 -625 5 -681 7 -704 23 -49 35 -50 43 -50
419 0 392 2 405 63 437 29 15 75 16 472 11 242 -3 552 -6 689 -6z m1619 0
l249 0 29 -29 29 -29 0 -379 c0 -334 -2 -381 -16 -402 -36 -51 -30 -51 -761
-45 -624 5 -680 7 -703 23 -49 35 -50 43 -50 419 0 392 2 405 63 437 29 15 75
16 472 11 242 -3 552 -6 688 -6z m1895 -17 c49 -30 52 -57 52 -425 0 -384 -2
-396 -70 -431 -32 -17 -57 -18 -345 -13 -170 3 -478 6 -684 6 l-373 0 -34 34
-34 34 0 366 c0 405 0 409 62 440 30 15 91 16 718 10 577 -5 689 -9 708 -21z
m-146 -1046 l3 -72 120 -5 c109 -5 125 -8 174 -35 214 -118 214 -419 -1 -536
l-63 -34 -192 -3 -193 -4 0 -32 c0 -48 -36 -180 -64 -236 -153 -304 -520 -424
-826 -270 -167 83 -293 261 -323 452 l-13 83 -69 3 -70 3 -18 -96 c-55 -299
-307 -515 -602 -515 -228 0 -446 137 -545 343 -28 59 -47 116 -58 177 l-16 90
-68 0 c-46 0 -70 -4 -72 -12 -2 -7 -9 -47 -15 -88 -23 -157 -133 -324 -271
-412 -310 -199 -730 -76 -881 257 -32 71 -59 171 -59 222 l0 33 -227 2 -228 3
-3 374 c-1 220 2 377 7 380 5 3 1035 5 2290 3 l2280 -2 3 -73z"/>
<path d="M3227 5823 c-4 -3 -7 -141 -7 -305 l0 -298 305 0 305 0 -2 303 -3
302 -296 3 c-162 1 -298 -1 -302 -5z"/>
<path d="M3499 3915 c-1 -201 -2 -371 -3 -377 -1 -8 13 -14 32 -16 l32 -3 0
380 0 381 -30 0 -30 0 -1 -365z"/>
<path d="M2865 4200 c-26 -29 -24 -79 4 -102 66 -53 153 29 101 95 -27 34 -78
37 -105 7z"/>
<path d="M3290 4200 c-41 -41 -12 -120 45 -120 30 0 75 41 75 68 0 59 -79 93
-120 52z"/>
<path d="M3661 4194 c-27 -35 -27 -65 2 -92 46 -44 117 -14 117 48 0 65 -79
94 -119 44z"/>
<path d="M3880 3950 c-28 -28 -27 -84 2 -104 34 -24 73 -20 97 10 27 35 26 59
-4 89 -29 30 -68 32 -95 5z"/>
<path d="M2860 3693 c-25 -32 -20 -69 12 -95 44 -38 111 -7 111 50 0 70 -80
99 -123 45z"/>
<path d="M3292 3704 c-47 -33 -16 -124 43 -124 30 0 75 41 75 68 0 11 -9 31
-21 46 -24 30 -63 34 -97 10z"/>
<path d="M4100 3700 c-28 -28 -27 -84 2 -104 34 -24 73 -20 97 10 27 35 26 59
-4 89 -29 30 -68 32 -95 5z"/>
<path d="M5120 3910 c0 -203 -1 -373 -2 -377 -2 -5 12 -9 30 -11 l32 -3 0 380
0 381 -30 0 -30 0 0 -370z"/>
<path d="M4485 4200 c-26 -29 -24 -79 4 -102 66 -53 153 29 101 95 -27 34 -78
37 -105 7z"/>
<path d="M4910 4200 c-41 -41 -12 -120 45 -120 30 0 75 41 75 68 0 59 -79 93
-120 52z"/>
<path d="M5281 4194 c-27 -35 -27 -65 2 -92 46 -44 117 -14 117 48 0 65 -79
94 -119 44z"/>
<path d="M5500 3950 c-28 -28 -27 -84 2 -104 34 -24 73 -20 97 10 27 35 26 59
-4 89 -29 30 -68 32 -95 5z"/>
<path d="M4480 3693 c-25 -32 -20 -69 12 -95 44 -38 111 -7 111 50 0 70 -80
99 -123 45z"/>
<path d="M4912 3704 c-47 -33 -16 -124 43 -124 30 0 75 41 75 68 0 11 -9 31
-21 46 -24 30 -63 34 -97 10z"/>
<path d="M5720 3700 c-28 -28 -27 -84 2 -104 34 -24 73 -20 97 10 27 35 26 59
-4 89 -29 30 -68 32 -95 5z"/>
<path d="M6749 3915 c-1 -201 -2 -371 -3 -377 -1 -8 13 -14 32 -16 l32 -3 0
380 0 381 -30 0 -30 0 -1 -365z"/>
<path d="M6115 4200 c-26 -29 -24 -79 4 -102 47 -38 114 -8 114 50 0 42 -28
72 -68 72 -19 0 -39 -8 -50 -20z"/>
<path d="M6540 4200 c-41 -41 -12 -120 45 -120 30 0 75 41 75 68 0 59 -79 93
-120 52z"/>
<path d="M6912 4197 c-28 -30 -28 -68 1 -95 46 -43 117 -14 117 48 0 62 -76
92 -118 47z"/>
<path d="M7130 3950 c-28 -28 -27 -84 2 -104 34 -24 73 -20 97 10 27 35 26 59
-4 89 -29 30 -68 32 -95 5z"/>
<path d="M6110 3693 c-25 -32 -20 -69 12 -95 44 -38 111 -7 111 50 0 70 -80
99 -123 45z"/>
<path d="M6537 3702 c-39 -43 -7 -122 48 -122 30 0 75 41 75 68 0 11 -9 31
-21 46 -25 32 -77 36 -102 8z"/>
<path d="M7350 3700 c-28 -28 -27 -84 2 -104 34 -24 73 -20 97 10 27 35 26 59
-4 89 -29 30 -68 32 -95 5z"/>
<path d="M3727 3034 c-246 -59 -393 -309 -328 -558 61 -231 277 -373 513 -336
308 47 476 376 337 659 -93 189 -309 287 -522 235z"/>
<path d="M5103 3035 c-211 -57 -343 -228 -343 -445 0 -277 229 -482 505 -454
151 16 278 99 350 229 45 82 59 149 53 260 -4 77 -11 104 -36 159 -93 198
-322 306 -529 251z"/>
<path d="M6478 3034 c-230 -55 -378 -281 -339 -516 61 -368 510 -514 774 -252
83 84 137 210 137 324 0 59 -24 160 -51 213 -93 183 -314 282 -521 231z"/>
</g>
</svg>
